<svg width="18" height="19" viewBox="0 0 18 19" fill="none" xmlns="http://www.w3.org/2000/svg">
<path d="M12.402 18.1067V11.1407H14.735L15.084 8.43269H12.402V6.70469C12.402 5.92069 12.62 5.38569 13.744 5.38569H15.178V2.96369C14.4838 2.89003 13.7861 2.85431 13.088 2.85669C11.021 2.85669 9.606 4.11869 9.606 6.43669V8.43269H7.268V11.1407H9.606V18.1067H1C0.734784 18.1067 0.48043 18.0013 0.292893 17.8138C0.105357 17.6263 0 17.3719 0 17.1067V1.10669C0 0.841473 0.105357 0.587119 0.292893 0.399583C0.48043 0.212046 0.734784 0.106689 1 0.106689H17C17.2652 0.106689 17.5196 0.212046 17.7071 0.399583C17.8946 0.587119 18 0.841473 18 1.10669V17.1067C18 17.3719 17.8946 17.6263 17.7071 17.8138C17.5196 18.0013 17.2652 18.1067 17 18.1067H12.402Z" fill="#7F7EA6"/>
</svg>
